<svg width="450" height="300" viewBox="0 0 450 300" fill="none" xmlns="http://www.w3.org/2000/svg">
    <g clip-path="url(#clip0_6841_29596)">
        <g clip-path="url(#clip1_6841_29596)">
            <mask
                id="mask0_6841_29596"
                style="mask-type: alpha"
                maskUnits="userSpaceOnUse"
                x="229"
                y="21"
                width="166"
                height="142"
            >
                <path
                    fill-rule="evenodd"
                    clip-rule="evenodd"
                    d="M290.164 152.49C290.164 152.49 304.93 162.932 334.725 162.895C355.028 162.866 389.306 141.518 394.052 99.5225C398.974 55.9093 368.212 25.9541 331.913 21.9627C313.016 19.8912 293.592 25.0084 279.969 32.2442C258.26 43.8119 229.958 58.8509 229.958 58.8509L290.164 152.49Z"
                    fill="url(#paint0_linear_6841_29596)"
                />
            </mask>
            <g mask="url(#mask0_6841_29596)">
                <path
                    fill-rule="evenodd"
                    clip-rule="evenodd"
                    d="M290.164 152.49C290.164 152.49 304.93 162.932 334.725 162.895C355.028 162.866 389.306 141.518 394.052 99.5225C398.974 55.9093 368.212 25.9541 331.913 21.9627C313.016 19.8912 293.592 25.0084 279.969 32.2442C258.26 43.8119 229.958 58.8509 229.958 58.8509L290.164 152.49Z"
                    fill="#FFF6E0"
                />
            </g>
            <g filter="url(#filter0_f_6841_29596)">
                <path
                    fill-rule="evenodd"
                    clip-rule="evenodd"
                    d="M283.246 162.743C283.246 162.743 300.644 169.172 321.558 169.145C342.382 169.117 377.539 148.476 382.407 107.869C387.455 65.6983 355.904 36.734 318.673 32.8745C299.292 30.8716 279.369 35.8196 265.397 42.816C243.13 54.0011 230.059 60.5493 230.059 60.5493"
                    fill="white"
                />
            </g>
            <path
                fill-rule="evenodd"
                clip-rule="evenodd"
                d="M297.78 132.708C297.78 132.708 308.224 139.986 329.299 139.959C343.66 139.94 367.905 125.061 371.262 95.7925C374.744 65.3965 352.985 44.5194 327.31 41.7375C313.944 40.2939 300.205 43.8602 290.569 48.9032C275.213 56.9653 255.195 67.4466 255.195 67.4466L297.78 132.708Z"
                fill="#FFF6E0"
            />
            <g filter="url(#filter1_f_6841_29596)">
                <path
                    fill-rule="evenodd"
                    clip-rule="evenodd"
                    d="M295.716 138.968C295.716 138.968 308.965 143.473 324.891 143.454C340.749 143.435 367.522 128.971 371.229 100.517C375.073 70.967 351.046 50.6712 322.695 47.9668C307.935 46.5633 292.764 50.0304 282.124 54.933C265.167 62.7706 255.213 67.359 255.213 67.359"
                    fill="white"
                />
            </g>
            <path
                fill-rule="evenodd"
                clip-rule="evenodd"
                d="M169.773 173.045C169.773 173.045 163.057 187.612 140.167 200.807C124.568 209.797 88.8081 208.63 66.5849 178.511C43.5113 147.229 53.8748 110.589 79.9757 91.4142C93.5662 81.4374 110.742 76.7429 124.401 76.2486C146.185 75.4896 174.566 74.4682 174.566 74.4682L169.773 173.045Z"
                fill="#FFF6E0"
            />
            <g filter="url(#filter2_f_6841_29596)">
                <path
                    fill-rule="evenodd"
                    clip-rule="evenodd"
                    d="M171.541 166.25C171.541 166.25 160.328 178.512 143.834 188.024C127.411 197.494 91.679 199.598 72.0584 174.439C51.6879 148.308 65.2963 114.404 93.1389 94.8368C107.636 84.6549 125.26 78.913 138.992 77.263C160.889 74.6579 173.736 73.1164 173.736 73.1164"
                    fill="white"
                />
            </g>
            <path
                fill-rule="evenodd"
                clip-rule="evenodd"
                d="M155.126 161.243C155.126 161.243 150.328 171.464 134.137 180.797C123.104 187.156 97.9083 186.501 82.3823 165.531C66.2621 143.752 73.73 118.074 92.2102 104.544C101.833 97.5035 113.958 94.1422 123.586 93.735C138.941 93.1059 158.946 92.2637 158.946 92.2637L155.126 161.243Z"
                fill="#FFF6E0"
            />
            <g filter="url(#filter3_f_6841_29596)">
                <path
                    fill-rule="evenodd"
                    clip-rule="evenodd"
                    d="M159.469 165.133C159.469 165.133 151.291 174.47 139.056 181.525C126.873 188.548 99.9206 189.332 84.4865 169.144C68.4621 148.175 77.9284 121.937 98.4975 107.278C109.207 99.6498 122.388 95.5766 132.725 94.6158C149.21 93.104 158.882 92.2068 158.882 92.2068"
                    fill="white"
                />
            </g>
            <path
                fill-rule="evenodd"
                clip-rule="evenodd"
                d="M255.962 220.682H203.956C219.119 214.44 223.795 204.381 223.795 171.498H236.123C236.548 202.46 241.65 214.768 255.962 220.682Z"
                fill="#79A071"
            />
            <mask
                id="mask1_6841_29596"
                style="mask-type: alpha"
                maskUnits="userSpaceOnUse"
                x="203"
                y="218"
                width="53"
                height="3"
            >
                <path
                    fill-rule="evenodd"
                    clip-rule="evenodd"
                    d="M255.962 220.683H203.956C205.798 219.91 207.498 219.09 209.057 218.165H251.143C252.56 219.125 254.261 219.957 255.962 220.683Z"
                    fill="url(#paint1_linear_6841_29596)"
                />
            </mask>
            <g mask="url(#mask1_6841_29596)">
                <path
                    fill-rule="evenodd"
                    clip-rule="evenodd"
                    d="M255.962 220.683H203.956C205.798 219.91 207.498 219.09 209.057 218.165H251.143C252.56 219.125 254.261 219.957 255.962 220.683Z"
                    fill="#4E463E"
                />
            </g>
            <mask
                id="mask2_6841_29596"
                style="mask-type: alpha"
                maskUnits="userSpaceOnUse"
                x="223"
                y="180"
                width="16"
                height="20"
            >
                <path
                    fill-rule="evenodd"
                    clip-rule="evenodd"
                    d="M223.087 188.935C223.371 186.476 223.513 183.83 223.655 180.96H236.408C236.833 188.42 237.683 194.568 238.958 199.662C234.14 196.594 229.889 191.863 223.087 188.935Z"
                    fill="url(#paint2_linear_6841_29596)"
                />
            </mask>
            <g mask="url(#mask2_6841_29596)">
                <path
                    fill-rule="evenodd"
                    clip-rule="evenodd"
                    d="M223.087 188.935C223.371 186.476 223.513 183.83 223.655 180.96H236.408C236.833 188.42 237.683 194.568 238.958 199.662C234.14 196.594 229.889 191.863 223.087 188.935Z"
                    fill="#4E463E"
                />
            </g>
            <path
                fill-rule="evenodd"
                clip-rule="evenodd"
                d="M311.873 73.1645V177.133C311.873 179.242 310.173 180.954 308.094 180.954H147.497C145.419 180.954 143.719 179.242 143.719 177.133V73.1645C143.719 71.0553 145.419 69.3433 147.497 69.3433H308.094C310.173 69.3433 311.873 71.0553 311.873 73.1645Z"
                fill="#CDE5E0"
            />
            <mask
                id="mask3_6841_29596"
                style="mask-type: alpha"
                maskUnits="userSpaceOnUse"
                x="143"
                y="73"
                width="169"
                height="108"
            >
                <path
                    fill-rule="evenodd"
                    clip-rule="evenodd"
                    d="M311.873 138.154V177.133C311.873 179.242 310.173 180.954 308.094 180.954H147.497C145.419 180.954 143.719 179.242 143.719 177.133V73.9873C162.046 71.6227 191.142 73.7509 215.609 95.0515C254.813 129.055 286.083 139.289 311.873 138.154Z"
                    fill="url(#paint3_linear_6841_29596)"
                />
            </mask>
            <g mask="url(#mask3_6841_29596)">
                <path
                    fill-rule="evenodd"
                    clip-rule="evenodd"
                    d="M311.873 138.154V177.133C311.873 179.242 310.173 180.954 308.094 180.954H147.497C145.419 180.954 143.719 179.242 143.719 177.133V73.9873C162.046 71.6227 191.142 73.7509 215.609 95.0515C254.813 129.055 286.083 139.289 311.873 138.154Z"
                    fill="white"
                />
            </g>
            <mask
                id="mask4_6841_29596"
                style="mask-type: alpha"
                maskUnits="userSpaceOnUse"
                x="143"
                y="93"
                width="166"
                height="88"
            >
                <path
                    fill-rule="evenodd"
                    clip-rule="evenodd"
                    d="M308.945 180.849C308.661 180.915 308.378 180.953 308.094 180.953H147.497C145.419 180.953 143.719 179.241 143.719 177.132V93.8398C165.352 95.41 191.709 103.015 214.287 124.221C250.563 158.224 281.738 174.824 308.945 180.849Z"
                    fill="url(#paint4_linear_6841_29596)"
                />
            </mask>
            <g mask="url(#mask4_6841_29596)">
                <path
                    fill-rule="evenodd"
                    clip-rule="evenodd"
                    d="M308.945 180.849C308.661 180.915 308.378 180.953 308.094 180.953H147.497C145.419 180.953 143.719 179.241 143.719 177.132V93.8398C165.352 95.41 191.709 103.015 214.287 124.221C250.563 158.224 281.738 174.824 308.945 180.849Z"
                    fill="white"
                />
            </g>
            <path
                fill-rule="evenodd"
                clip-rule="evenodd"
                d="M147.497 69.3433H308.094C310.173 69.3433 311.873 71.0553 311.873 73.1645V177.133C311.873 179.242 310.173 180.954 308.094 180.954H147.497C145.419 180.954 143.719 179.242 143.719 177.133V73.1645C143.719 71.0553 145.419 69.3433 147.497 69.3433ZM306.205 75.0184H149.387V175.279H306.205V75.0184Z"
                fill="#79A071"
            />
            <path
                d="M293.262 172.013C293.262 172.013 287.337 168.362 282.043 170.065C276.623 171.808 273.238 176.7 273.295 182.999C273.345 188.516 276.075 193.013 280.774 197.29C284.823 200.976 298.917 214.519 298.917 214.519C299.687 215.259 300.807 215.44 301.754 214.978C302.701 214.516 303.29 213.501 303.245 212.407L302.956 205.382C302.896 203.935 301.761 202.794 300.379 202.791L297.673 202.786C295.074 200.292 286.42 191.988 284.899 190.498C283.49 189.117 279.962 186.111 281.15 181.308C282.08 177.552 285.347 177.436 286.681 177.548C288.152 177.671 290.653 179.364 290.653 179.364C291.461 179.875 292.471 179.883 293.286 179.386C294.102 178.889 294.594 177.965 294.57 176.977L294.504 174.257C294.481 173.336 294.013 172.491 293.262 172.013Z"
                fill="#FF9A19"
            />
            <path
                d="M289.041 170.329H345.993C345.993 170.329 346.467 177.202 344.503 181.972C341.777 188.594 339.011 190.173 339.011 195.963C339.011 199.823 341.447 204.338 338.792 210.528C335.877 217.326 329.628 220.687 329.628 220.687H305.661C305.661 220.687 297.484 216.188 295.733 207.87C294.46 201.826 296.594 201.281 296.32 195.307C296.088 190.25 291.551 187.443 289.587 179.505C288.711 175.966 289.041 170.329 289.041 170.329Z"
                fill="#FFC93E"
            />
            <mask
                id="mask5_6841_29596"
                style="mask-type: alpha"
                maskUnits="userSpaceOnUse"
                x="288"
                y="170"
                width="34"
                height="51"
            >
                <path
                    d="M313.182 211.038C311.359 205.155 313.764 200.369 312.055 194.216C310.345 188.062 304.872 184.093 302.926 179.14C301.47 175.434 302.344 170.329 302.344 170.329H289.05C289.05 170.329 288.72 175.966 289.596 179.505C291.56 187.443 296.097 190.25 296.329 195.307C296.603 201.281 294.469 201.826 295.742 207.87C297.494 216.188 305.671 220.688 305.671 220.688H321.037C321.037 220.688 315.291 217.847 313.182 211.038Z"
                    fill="url(#paint5_linear_6841_29596)"
                />
            </mask>
            <g mask="url(#mask5_6841_29596)">
                <path
                    d="M313.182 211.038C311.359 205.155 313.764 200.369 312.055 194.216C310.345 188.062 304.872 184.093 302.926 179.14C301.47 175.434 302.344 170.329 302.344 170.329H289.05C289.05 170.329 288.72 175.966 289.596 179.505C291.56 187.443 296.097 190.25 296.329 195.307C296.603 201.281 294.469 201.826 295.742 207.87C297.494 216.188 305.671 220.688 305.671 220.688H321.037C321.037 220.688 315.291 217.847 313.182 211.038Z"
                    fill="#FF9A19"
                />
            </g>
            <path
                fill-rule="evenodd"
                clip-rule="evenodd"
                d="M387.187 151.304L392.687 219.21C392.754 220.026 392.154 220.687 391.332 220.687H351.238C350.416 220.687 349.71 220.026 349.643 219.21L344.143 151.304C344.077 150.487 344.676 149.827 345.499 149.827H385.592C386.415 149.827 387.121 150.487 387.187 151.304Z"
                fill="#79A071"
            />
            <mask
                id="mask6_6841_29596"
                style="mask-type: alpha"
                maskUnits="userSpaceOnUse"
                x="344"
                y="149"
                width="13"
                height="72"
            >
                <path
                    fill-rule="evenodd"
                    clip-rule="evenodd"
                    d="M345.499 149.825H350.604C349.999 149.825 349.439 150.077 349.039 150.516C348.639 150.954 348.42 151.543 348.468 152.137L353.792 217.863C353.921 219.454 355.254 220.685 356.851 220.685H351.238C350.416 220.685 349.709 220.025 349.643 219.208L344.143 151.302C344.077 150.486 344.677 149.825 345.499 149.825Z"
                    fill="url(#paint6_linear_6841_29596)"
                />
            </mask>
            <g mask="url(#mask6_6841_29596)">
                <path
                    fill-rule="evenodd"
                    clip-rule="evenodd"
                    d="M345.499 149.825H350.604C349.999 149.825 349.439 150.077 349.039 150.516C348.639 150.954 348.42 151.543 348.468 152.137L353.792 217.863C353.921 219.454 355.254 220.685 356.851 220.685H351.238C350.416 220.685 349.709 220.025 349.643 219.208L344.143 151.302C344.077 150.486 344.677 149.825 345.499 149.825Z"
                    fill="#4E463E"
                />
            </g>
            <path
                fill-rule="evenodd"
                clip-rule="evenodd"
                d="M384.371 153.54L389.485 216.675H358.16L353.046 153.54H363.032C364.755 153.54 366.337 154.508 367.138 156.049C367.239 156.247 367.321 156.434 367.42 156.611C367.74 157.221 368.363 157.606 369.055 157.606C369.224 157.606 369.41 157.606 369.579 157.606C370.187 157.606 370.731 157.231 370.955 156.659C371.11 156.279 371.276 155.824 371.443 155.385C371.877 154.273 372.95 153.54 374.133 153.54C377.596 153.54 384.371 153.54 384.371 153.54Z"
                fill="#CDE5E0"
            />
            <mask
                id="mask7_6841_29596"
                style="mask-type: alpha"
                maskUnits="userSpaceOnUse"
                x="356"
                y="164"
                width="32"
                height="53"
            >
                <path
                    fill-rule="evenodd"
                    clip-rule="evenodd"
                    d="M358.115 216.122L356.276 193.415C357.755 190.199 359.128 186.909 361.893 183.923C367.116 178.316 374.851 177.444 379.617 173.286C383.183 170.178 385.207 164.083 385.207 164.083L385.225 164.1L387.088 187.09C382.864 190.017 379.212 191.237 377.032 194.977C373.37 201.296 375.199 203.222 370.479 208.99C366.821 213.468 361.802 215.341 358.115 216.122Z"
                    fill="url(#paint7_linear_6841_29596)"
                />
            </mask>
            <g mask="url(#mask7_6841_29596)">
                <path
                    fill-rule="evenodd"
                    clip-rule="evenodd"
                    d="M358.115 216.122L356.276 193.415C357.755 190.199 359.128 186.909 361.893 183.923C367.116 178.316 374.851 177.444 379.617 173.286C383.183 170.178 385.207 164.083 385.207 164.083L385.225 164.1L387.088 187.09C382.864 190.017 379.212 191.237 377.032 194.977C373.37 201.296 375.199 203.222 370.479 208.99C366.821 213.468 361.802 215.341 358.115 216.122Z"
                    fill="white"
                />
            </g>
            <path
                fill-rule="evenodd"
                clip-rule="evenodd"
                d="M383.816 193.279C383.943 194.88 382.738 196.184 381.125 196.184H365.169C363.556 196.184 362.145 194.88 362.019 193.279C361.892 191.678 363.097 190.374 364.71 190.374H380.666C382.279 190.374 383.69 191.678 383.816 193.279Z"
                fill="white"
            />
            <path
                d="M368.608 153.547C367.837 153.547 367.137 152.922 367.045 152.151C366.952 151.379 367.501 150.754 368.272 150.754C369.043 150.754 369.742 151.379 369.835 152.151C369.928 152.922 369.378 153.547 368.608 153.547Z"
                fill="#4E463E"
            />
            <path
                d="M369.817 185.259C374.246 185.259 377.836 181.665 377.836 177.231C377.836 172.796 374.246 169.202 369.817 169.202C365.388 169.202 361.798 172.796 361.798 177.231C361.798 181.665 365.388 185.259 369.817 185.259Z"
                fill="#FFB399"
            />
            <path
                d="M183.87 125.149C191.696 125.149 198.041 118.797 198.041 110.962C198.041 103.126 191.696 96.7739 183.87 96.7739C176.044 96.7739 169.7 103.126 169.7 110.962C169.7 118.797 176.044 125.149 183.87 125.149Z"
                fill="#EE6449"
            />
            <path
                fill-rule="evenodd"
                clip-rule="evenodd"
                d="M171.809 153.222L126.409 220.68H189.966C190.906 220.68 191.77 220.245 192.269 219.517C192.767 218.789 192.937 217.852 192.676 217.001C188.052 202.917 171.809 153.222 171.809 153.222Z"
                fill="#FFC93E"
            />
            <mask
                id="mask8_6841_29596"
                style="mask-type: alpha"
                maskUnits="userSpaceOnUse"
                x="126"
                y="156"
                width="49"
                height="65"
            >
                <path
                    fill-rule="evenodd"
                    clip-rule="evenodd"
                    d="M169.7 156.397L174.418 171.749C174.418 171.749 171.177 176.61 170.578 180.545C169.751 185.813 172.501 191.99 170.907 198.176C169.313 204.362 164.866 207.303 163.545 213.309C162.794 216.109 163.099 218.644 163.534 220.678H126.41L169.7 156.397Z"
                    fill="url(#paint8_linear_6841_29596)"
                />
            </mask>
            <g mask="url(#mask8_6841_29596)">
                <path
                    fill-rule="evenodd"
                    clip-rule="evenodd"
                    d="M169.7 156.397L174.418 171.749C174.418 171.749 171.177 176.61 170.578 180.545C169.751 185.813 172.501 191.99 170.907 198.176C169.313 204.362 164.866 207.303 163.545 213.309C162.794 216.109 163.099 218.644 163.534 220.678H126.41L169.7 156.397Z"
                    fill="#FF9A19"
                />
            </g>
            <path
                d="M185.03 205.719H123.516"
                stroke="#FF9A19"
                stroke-width="0.545285"
                stroke-miterlimit="3"
                stroke-linecap="round"
            />
            <path
                fill-rule="evenodd"
                clip-rule="evenodd"
                d="M122.642 205.717C122.642 205.235 123.033 204.844 123.516 204.844H185.03C185.512 204.844 185.903 205.235 185.903 205.717C185.903 206.2 185.512 206.591 185.03 206.591H123.516C123.033 206.591 122.642 206.2 122.642 205.717Z"
                fill="#FF9A19"
            />
            <path
                fill-rule="evenodd"
                clip-rule="evenodd"
                d="M120.023 185.689C120.023 185.206 120.414 184.815 120.897 184.815H178.921C179.403 184.815 179.794 185.206 179.794 185.689C179.794 186.171 179.403 186.562 178.921 186.562H120.897C120.414 186.562 120.023 186.171 120.023 185.689Z"
                fill="#FF9A19"
            />
            <path
                fill-rule="evenodd"
                clip-rule="evenodd"
                d="M168.083 150.687C169.375 150.687 170.607 151.349 171.293 152.446C171.98 153.543 172.184 154.933 171.641 156.154C165.527 170.947 148.672 211.193 145.316 219.261C144.933 220.122 144.098 220.68 143.158 220.68C133.055 220.68 76.1942 220.68 61.2743 220.68C60.5695 220.68 59.8065 220.282 59.392 219.63C58.9818 218.967 58.8823 218.135 59.198 217.426C64.5695 205.357 83.2392 163.408 87.8614 153.023C88.4928 151.604 89.9587 150.687 91.4859 150.687C103.116 150.687 151.166 150.687 168.083 150.687Z"
                fill="#FFC93E"
            />
            <path
                fill-rule="evenodd"
                clip-rule="evenodd"
                d="M142.902 220.68L171.216 152.352C171.203 152.38 171.303 152.418 171.291 152.447C171.978 153.544 172.182 154.934 171.638 156.154L145.297 219.262C144.914 220.122 144.078 220.68 143.137 220.68H142.902Z"
                fill="#FFF6E0"
            />
            <path
                d="M153.028 187.296C153.913 187.296 154.83 186.578 155.077 185.692C155.324 184.807 154.807 184.089 153.922 184.089C153.038 184.089 152.12 184.807 151.873 185.692C151.626 186.578 152.143 187.296 153.028 187.296Z"
                fill="#FF9A19"
            />
            <path
                fill-rule="evenodd"
                clip-rule="evenodd"
                d="M162.513 154.724L136.818 216.421H64.222L91.6812 154.724H162.513Z"
                fill="#FFEFE5"
            />
            <mask
                id="mask9_6841_29596"
                style="mask-type: alpha"
                maskUnits="userSpaceOnUse"
                x="64"
                y="171"
                width="88"
                height="46"
            >
                <path
                    fill-rule="evenodd"
                    clip-rule="evenodd"
                    d="M136.814 216.422H64.2215L84.1393 171.667C104.609 188.141 131.626 186.432 151.148 181.98L136.814 216.422Z"
                    fill="url(#paint9_linear_6841_29596)"
                />
            </mask>
            <g mask="url(#mask9_6841_29596)">
                <path
                    fill-rule="evenodd"
                    clip-rule="evenodd"
                    d="M136.814 216.422H64.2215L84.1393 171.667C104.609 188.141 131.626 186.432 151.148 181.98L136.814 216.422Z"
                    fill="white"
                />
            </g>
            <mask
                id="mask10_6841_29596"
                style="mask-type: alpha"
                maskUnits="userSpaceOnUse"
                x="64"
                y="188"
                width="81"
                height="29"
            >
                <path
                    fill-rule="evenodd"
                    clip-rule="evenodd"
                    d="M144.085 199.08L136.809 216.422H64.222L76.7477 188.274C98.4073 206.533 124.612 204.166 144.085 199.08Z"
                    fill="url(#paint10_linear_6841_29596)"
                />
            </mask>
            <g mask="url(#mask10_6841_29596)">
                <path
                    fill-rule="evenodd"
                    clip-rule="evenodd"
                    d="M144.085 199.08L136.809 216.422H64.222L76.7477 188.274C98.4073 206.533 124.612 204.166 144.085 199.08Z"
                    fill="white"
                />
            </g>
            <path
                d="M92.4386 192.327C96.8132 192.327 100.359 188.776 100.359 184.396C100.359 180.016 96.8132 176.465 92.4386 176.465C88.064 176.465 84.5177 180.016 84.5177 184.396C84.5177 188.776 88.064 192.327 92.4386 192.327Z"
                fill="#FFB399"
            />
            <path
                fill-rule="evenodd"
                clip-rule="evenodd"
                d="M202.423 98.814L183.823 117.928L175.845 107.981L177.921 106.29L184.089 113.981L200.581 97.0327L202.423 98.814Z"
                fill="white"
            />
            <path
                fill-rule="evenodd"
                clip-rule="evenodd"
                d="M109.044 171.672L92.9956 188.165L86.0461 179.499L88.1221 177.809L93.2611 184.217L107.201 169.891L109.044 171.672Z"
                fill="#EE6449"
            />
            <path
                fill-rule="evenodd"
                clip-rule="evenodd"
                d="M383.786 166.035L367.737 182.527L360.788 173.862L362.864 172.172L368.003 178.58L381.943 164.254L383.786 166.035Z"
                fill="#EE6449"
            />
            <path
                fill-rule="evenodd"
                clip-rule="evenodd"
                d="M143.901 185.577C142.94 187.744 140.415 189.508 138.221 189.508H113.823C111.629 189.508 110.669 187.744 111.63 185.577C112.591 183.411 115.116 181.646 117.31 181.646H141.707C143.902 181.646 144.862 183.411 143.901 185.577Z"
                fill="white"
            />
            <path
                fill-rule="evenodd"
                clip-rule="evenodd"
                d="M276.654 109.898C276.654 112.943 274.236 115.424 271.147 115.424H214.993C211.903 115.424 209.485 112.943 209.485 109.898C209.485 106.853 211.903 104.372 214.993 104.372H271.147C274.236 104.372 276.654 106.853 276.654 109.898Z"
                fill="white"
            />
            <path
                fill-rule="evenodd"
                clip-rule="evenodd"
                d="M276.654 132.69C276.654 135.736 274.236 138.216 271.147 138.216H214.993C211.903 138.216 209.485 135.736 209.485 132.69C209.485 129.645 211.903 127.165 214.993 127.165H271.147C274.236 127.165 276.654 129.645 276.654 132.69Z"
                fill="white"
            />
        </g>
        <mask
            id="mask11_6841_29596"
            style="mask-type: alpha"
            maskUnits="userSpaceOnUse"
            x="-3"
            y="220"
            width="455"
            height="62"
        >
            <path
                d="M451.81 220.688H-2.03125V281.84H451.81V220.688Z"
                fill="url(#paint11_radial_6841_29596)"
            />
        </mask>
        <g mask="url(#mask11_6841_29596)">
            <path d="M451.81 220.688H-2.03125V281.84H451.81V220.688Z" fill="#FFF6E0" />
        </g>
    </g>
    <defs>
        <filter
            id="filter0_f_6841_29596"
            x="208.219"
            y="10.5857"
            width="196.561"
            height="180.399"
            filterUnits="userSpaceOnUse"
            color-interpolation-filters="sRGB"
        >
            <feFlood flood-opacity="0" result="BackgroundImageFix" />
            <feBlend mode="normal" in="SourceGraphic" in2="BackgroundImageFix" result="shape" />
            <feGaussianBlur stdDeviation="10.9201" result="effect1_foregroundBlur_6841_29596" />
        </filter>
        <filter
            id="filter1_f_6841_29596"
            x="233.373"
            y="25.8122"
            width="160.102"
            height="139.482"
            filterUnits="userSpaceOnUse"
            color-interpolation-filters="sRGB"
        >
            <feFlood flood-opacity="0" result="BackgroundImageFix" />
            <feBlend mode="normal" in="SourceGraphic" in2="BackgroundImageFix" result="shape" />
            <feGaussianBlur stdDeviation="10.9201" result="effect1_foregroundBlur_6841_29596" />
        </filter>
        <filter
            id="filter2_f_6841_29596"
            x="40.4426"
            y="51.2761"
            width="155.134"
            height="165.15"
            filterUnits="userSpaceOnUse"
            color-interpolation-filters="sRGB"
        >
            <feFlood flood-opacity="0" result="BackgroundImageFix" />
            <feBlend mode="normal" in="SourceGraphic" in2="BackgroundImageFix" result="shape" />
            <feGaussianBlur stdDeviation="10.9201" result="effect1_foregroundBlur_6841_29596" />
        </filter>
        <filter
            id="filter3_f_6841_29596"
            x="54.5716"
            y="70.3669"
            width="126.737"
            height="137.495"
            filterUnits="userSpaceOnUse"
            color-interpolation-filters="sRGB"
        >
            <feFlood flood-opacity="0" result="BackgroundImageFix" />
            <feBlend mode="normal" in="SourceGraphic" in2="BackgroundImageFix" result="shape" />
            <feGaussianBlur stdDeviation="10.9201" result="effect1_foregroundBlur_6841_29596" />
        </filter>
        <linearGradient
            id="paint0_linear_6841_29596"
            x1="332.708"
            y1="13.2061"
            x2="275.705"
            y2="92.2674"
            gradientUnits="userSpaceOnUse"
        >
            <stop />
            <stop offset="1" stop-opacity="0" />
        </linearGradient>
        <linearGradient
            id="paint1_linear_6841_29596"
            x1="226.989"
            y1="240.125"
            x2="226.989"
            y2="194.479"
            gradientUnits="userSpaceOnUse"
        >
            <stop />
            <stop offset="1" stop-opacity="0" />
        </linearGradient>
        <linearGradient
            id="paint2_linear_6841_29596"
            x1="234.645"
            y1="216.101"
            x2="234.645"
            y2="150.58"
            gradientUnits="userSpaceOnUse"
        >
            <stop />
            <stop offset="1" stop-opacity="0" />
        </linearGradient>
        <linearGradient
            id="paint3_linear_6841_29596"
            x1="247.968"
            y1="74.1397"
            x2="218.921"
            y2="128.958"
            gradientUnits="userSpaceOnUse"
        >
            <stop />
            <stop offset="1" stop-opacity="0" />
        </linearGradient>
        <linearGradient
            id="paint4_linear_6841_29596"
            x1="230.278"
            y1="122.406"
            x2="216.483"
            y2="141.025"
            gradientUnits="userSpaceOnUse"
        >
            <stop />
            <stop offset="1" stop-opacity="0" />
        </linearGradient>
        <linearGradient
            id="paint5_linear_6841_29596"
            x1="326.592"
            y1="204.525"
            x2="289.027"
            y2="213.698"
            gradientUnits="userSpaceOnUse"
        >
            <stop />
            <stop offset="1" stop-opacity="0" />
        </linearGradient>
        <linearGradient
            id="paint6_linear_6841_29596"
            x1="379.227"
            y1="223.962"
            x2="318.075"
            y2="223.962"
            gradientUnits="userSpaceOnUse"
        >
            <stop />
            <stop offset="1" stop-opacity="0" />
        </linearGradient>
        <linearGradient
            id="paint7_linear_6841_29596"
            x1="371.657"
            y1="156.04"
            x2="371.657"
            y2="231.825"
            gradientUnits="userSpaceOnUse"
        >
            <stop />
            <stop offset="1" stop-opacity="0" />
        </linearGradient>
        <linearGradient
            id="paint8_linear_6841_29596"
            x1="203.633"
            y1="185.305"
            x2="152.777"
            y2="169.035"
            gradientUnits="userSpaceOnUse"
        >
            <stop />
            <stop offset="1" stop-opacity="0" />
        </linearGradient>
        <linearGradient
            id="paint9_linear_6841_29596"
            x1="95.6709"
            y1="153.764"
            x2="115.16"
            y2="206.547"
            gradientUnits="userSpaceOnUse"
        >
            <stop />
            <stop offset="1" stop-opacity="0" />
        </linearGradient>
        <linearGradient
            id="paint10_linear_6841_29596"
            x1="99.8919"
            y1="191.204"
            x2="95.752"
            y2="213.919"
            gradientUnits="userSpaceOnUse"
        >
            <stop />
            <stop offset="1" stop-opacity="0" />
        </linearGradient>
        <radialGradient
            id="paint11_radial_6841_29596"
            cx="0"
            cy="0"
            r="1"
            gradientUnits="userSpaceOnUse"
            gradientTransform="translate(224.889 200.75) rotate(90) scale(80.9375 301.063)"
        >
            <stop />
            <stop offset="1" stop-opacity="0" />
        </radialGradient>
        <clipPath id="clip0_6841_29596">
            <rect width="450" height="300" fill="white" />
        </clipPath>
        <clipPath id="clip1_6841_29596">
            <rect
                width="340.758"
                height="205.839"
                fill="white"
                transform="translate(53.9664 21.5049)"
            />
        </clipPath>
    </defs>
</svg>
